# xmcd CD database file
# Copyright (C) 1995-1998 Ti Kan
#
# Track frame offsets:
#	150
#	24077
#	38900
#
# Disc length: 871 seconds
#
# Revision: 1
# Processed by: cddbd v1.4PL0 Copyright (c) Steve Scherf et al.
# Submitted via: CDex 1.30Release
#
DISCID=16036503
DTITLE=Van Morrison - No Religion
DYEAR=1995
DGENRE=Blues
TTITLE0=No Religion
TTITLE1=Days Like This
TTITLE2=Raincheck
EXTD=YEAR: 1995 ID3G:   0
EXTT0=
EXTT1=
EXTT2=
PLAYORDER=
